PathFileType	4	(X/Y/Z)	C:/Users/opensim2020/Desktop/walking_exp_matlab/subject02_walking17_run.trc																																																																																																																																																							
DataRate	CameraRate	NumFrames	NumMarkers	Units	OrigDataRate	OrigDataStartFrame	OrigNumFrames																																																																																																																																																			
100	100	5	51	mm	100	287	112																																																																																																																																																			
Frame#	Time	LSHO			RELB			LANK			LTOE			LUPA			RUPA			RWRB			LKNE			RSHO			RFIN			RFRM			RASI			LTHI			LWRB			RTHI			LASI			LFHD			RKNE			LELB			LTIB			RWRA			STRN			RTIB			RFHD			RANK			RBHD			RTOE			RHEE			C7			LHEE			LFRM			CLAV			LWRA			LBHD			RBAK			LFIN			T10			LPSI			RPSI			*39			*40			*41			*42			*43			*44			*45			*46			*47			*48			*49			*50		
		X1	Y1	Z1	X2	Y2	Z2	X3	Y3	Z3	X4	Y4	Z4	X5	Y5	Z5	X6	Y6	Z6	X7	Y7	Z7	X8	Y8	Z8	X9	Y9	Z9	X10	Y10	Z10	X11	Y11	Z11	X12	Y12	Z12	X13	Y13	Z13	X14	Y14	Z14	X15	Y15	Z15	X16	Y16	Z16	X17	Y17	Z17	X18	Y18	Z18	X19	Y19	Z19	X20	Y20	Z20	X21	Y21	Z21	X22	Y22	Z22	X23	Y23	Z23	X24	Y24	Z24	X25	Y25	Z25	X26	Y26	Z26	X27	Y27	Z27	X28	Y28	Z28	X29	Y29	Z29	X30	Y30	Z30	X31	Y31	Z31	X32	Y32	Z32	X33	Y33	Z33	X34	Y34	Z34	X35	Y35	Z35	X36	Y36	Z36	X37	Y37	Z37	X38	Y38	Z38	X39	Y39	Z39	X40	Y40	Z40	X41	Y41	Z41	X42	Y42	Z42	X43	Y43	Z43	X44	Y44	Z44	X45	Y45	Z45	X46	Y46	Z46	X47	Y47	Z47	X48	Y48	Z48	X49	Y49	Z49	X50	Y50	Z50	X51	Y51	Z51
																																																																																																																																																										
57	0.56	218.80647	1444.09473	-98.54617	103.63731	1115.0426	392.31619	-79.90409	270.89932	-43.8642	-31.49089	122.73194	-52.21619	223.59334	1391.901	-277.7619	78.38329	1246.92847	330.60324	342.48676	1083.15369	315.11639	267.53522	444.40997	-56.65305	152.48247	1413.0863	240.53903	382.35083	1132.3645	292.87894	225.63911	1097.32654	357.58429	165.25488	913.83722	196.36775	236.78322	607.88666	-102.9243	266.17047	1045.71326	-416.98071	140.56462	625.99451	253.99794	212.49265	892.41815	-63.44364	252.07359	1670.17236	-7.65264	163.89589	416.06616	216.82915	250.80849	1318.474	-399.97855	108.94936	396.0271	-57.1905	320.38327	1121.57739	277.4444	250.33612	1185.45154	70.13799	59.28584	260.72324	217.53299	250.03609	1665.17627	137.53519	-45.34609	100.68515	179.20795	127.51707	1557.87622	130.67619	89.14736	37.39099	194.14191	-98.22919	55.20776	122.50246	113.18547	1461.04114	48.60301	-124.79166	282.81955	6.21299	265.04303	1174.03296	-420.2457	244.28357	1368.45642	61.29684	238.11485	1046.87341	-365.5072	141.14833	1567.76233	-11.73298	15.2285	1311.61475	83.75474	252.31006	977.24542	-401.48962	7.98947	1213.23486	20.51994	0.96788	976.80774	-26.03366	-23.46519	984.62683	78.16386	2845.1001	1034.5824	-3360.42651	NaN	NaN	NaN	NaN	NaN	NaN	NaN	NaN	NaN	NaN	NaN	NaN	NaN	NaN	NaN	134.06364	1717.75452	74.2581	NaN	NaN	NaN	NaN	NaN	NaN	NaN	NaN	NaN	NaN	NaN	NaN	NaN	NaN	NaN
58	0.57	253.62228	1450.65625	-98.69044	163.04836	1121.41528	394.80289	-2.12605	250.44212	-42.2239	62.95211	109.9353	-44.85775	254.56712	1401.34521	-278.79745	132.54805	1252.5166	335.03986	398.78473	1106.62402	305.38425	329.11569	457.20697	-52.86813	197.75665	1418.8999	239.78923	434.26157	1158.09338	280.75095	283.84552	1111.76721	354.2327	209.16565	918.04449	195.57115	286.63657	619.0592	-102.77579	293.11591	1057.02893	-417.58145	166.54637	624.09808	252.0183	253.18576	904.55457	-67.00259	292.17825	1674.39392	-9.62146	175.48383	412.09479	216.55455	275.37515	1329.245	-404.56799	175.31067	393.77347	-57.241	372.41284	1143.67151	269.48535	290.59274	1189.48999	65.58135	64.92087	261.20712	215.61151	290.27222	1669.5426	135.60831	-44.50784	104.90118	177.22853	167.74733	1562.11755	129.03586	88.63628	37.02179	193.73598	-96.57335	61.04382	119.81626	151.18622	1464.63208	48.78765	-49.41861	259.51718	6.60583	290.33713	1185.39258	-423.21744	284.96616	1373.0636	58.48686	269.59766	1059.20789	-363.89285	181.39563	1571.72852	-13.56739	56.61581	1314.45068	85.64064	283.23245	988.95288	-398.50375	47.87292	1216.7041	22.70122	41.60678	979.60199	-23.331	17.84756	986.93402	80.1423	2845.91113	1034.51648	-3357.41577	NaN	NaN	NaN	NaN	NaN	NaN	NaN	NaN	NaN	NaN	NaN	NaN	NaN	NaN	NaN	174.13606	1721.828	72.22326	NaN	NaN	NaN	NaN	NaN	NaN	NaN	NaN	NaN	NaN	NaN	NaN	NaN	NaN	NaN
59	0.58	288.96744	1457.48511	-99.20306	221.38939	1130.07886	396.46152	77.3972	229.32277	-39.79253	159.99263	99.18166	-38.10373	285.56458	1410.24963	-280.31125	186.93356	1260.41199	339.31293	452.12997	1130.27271	295.54117	387.69009	471.52484	-51.4908	243.16182	1425.94995	238.40469	483.74292	1183.91492	269.48172	339.73199	1127.67688	349.68445	254.48053	923.9118	193.14479	335.47534	630.961	-102.9882	321.03876	1067.52222	-416.08435	190.0648	624.6701	250.51694	293.80298	916.92688	-70.66785	332.36282	1680.0249	-11.82796	187.61421	412.80502	216.20163	299.69748	1338.33167	-408.07388	240.13359	389.92453	-58.31451	422.19894	1165.4281	261.04245	331.48526	1195.05872	60.62372	70.77621	265.19464	214.72162	330.65704	1675.13171	133.42973	-41.92785	111.57126	177.27296	208.04732	1567.81958	126.86535	88.68022	36.93174	193.68092	-95.24737	71.38788	119.76283	190.06461	1469.23792	48.95413	28.66088	233.56883	8.11863	315.63855	1195.41602	-424.73962	325.35699	1379.06689	55.80388	302.44492	1071.09729	-360.69626	221.46069	1577.45801	-15.616	98.37107	1319.39075	89.14193	316.18179	1000.3996	-393.59656	88.56739	1220.75098	25.6602	83.26511	983.1059	-21.15753	60.22901	990.2981	82.72549	2845.81616	1034.60205	-3357.29834	NaN	NaN	NaN	NaN	NaN	NaN	NaN	NaN	NaN	NaN	NaN	NaN	NaN	NaN	NaN	214.3452	1727.42151	70.01659	NaN	NaN	NaN	NaN	NaN	NaN	NaN	NaN	NaN	NaN	NaN	NaN	NaN	NaN	NaN
60	0.59	324.96982	1464.40112	-100.24311	278.22049	1140.44751	397.46964	160.00081	208.06114	-36.90781	258.60632	90.62417	-32.12614	316.35355	1418.27124	-282.14441	241.58041	1270.18665	342.75876	502.50137	1153.26941	285.87045	443.91177	485.06146	-51.20983	288.83145	1433.94556	236.41853	530.16522	1208.23779	257.99774	393.42831	1144.65137	345.07236	299.9552	929.63684	189.3891	383.0867	643.42224	-103.42616	350.06363	1077.10815	-413.13101	211.72382	628.44373	248.86505	333.97714	927.6192	-74.17296	372.64725	1686.48743	-14.19681	201.23106	416.92722	216.68919	323.88092	1345.97961	-410.46893	304.52271	384.62918	-59.50382	469.3118	1186.47388	252.65829	373.12244	1202.12756	56.19291	78.95453	274.63269	215.91122	370.98279	1681.21265	130.62839	-37.39597	121.84956	178.94374	248.23161	1574.61597	124.50813	88.93455	36.51571	193.85873	-91.34613	84.93285	121.75079	230.24139	1475.00806	49.09839	110.37311	207.09966	10.58766	341.21979	1204.12891	-425.11926	365.84247	1386.08167	53.00911	336.53076	1082.6283	-356.41171	261.44739	1584.4397	-17.9735	140.4742	1325.26819	93.56338	350.95343	1011.54596	-387.44818	129.61211	1225.31152	29.25755	125.22544	988.29236	-19.72359	103.55656	994.0755	86.06367	2845.97241	1034.29968	-3357.39038	NaN	NaN	NaN	NaN	NaN	NaN	NaN	NaN	NaN	NaN	NaN	NaN	NaN	NaN	NaN	255.01341	1734.31165	67.66541	NaN	NaN	NaN	NaN	NaN	NaN	NaN	NaN	NaN	NaN	NaN	NaN	NaN	NaN	NaN
61	0.6	361.51709	1471.11658	-102.09258	333.06763	1151.58655	397.40533	245.21402	187.95706	-34.02472	357.43338	84.31359	-26.95385	346.74539	1425.22009	-284.15036	295.64853	1281.06335	344.76633	550.29175	1174.90649	276.22211	497.92001	497.53491	-51.62704	334.72864	1442.33582	233.54919	574.49872	1230.94556	246.65135	444.70407	1161.41162	340.25598	343.97937	933.39728	185.6922	429.0784	655.82147	-104.14137	380.00259	1085.922	-409.02094	235.68903	635.896	247.73396	374.04001	938.26306	-76.60057	413.1467	1693.45972	-16.70679	217.12741	424.22009	218.1021	347.64667	1352.30945	-412.01373	368.79117	378.39587	-60.28333	514.37512	1206.3811	244.5632	415.08237	1209.79919	52.83339	90.22584	286.11459	218.45612	411.75784	1687.75989	128.04156	-29.81332	135.41095	182.6944	288.5116	1581.98828	121.92361	89.95739	36.49503	195.06046	-84.96709	102.38104	126.075	270.95264	1481.66504	49.27967	194.94727	181.71898	13.26795	367.07748	1211.91394	-424.13507	406.45358	1393.74988	50.04285	372.14719	1093.54871	-351.88666	301.41559	1592.12073	-20.6224	182.7292	1331.4502	98.9381	386.85159	1022.16095	-380.57678	170.76051	1230.60986	32.9728	166.74025	994.99084	-18.27563	147.19991	998.86475	89.72482	2845.875	1034.46765	-3357.22681	NaN	NaN	NaN	NaN	NaN	NaN	NaN	NaN	NaN	NaN	NaN	NaN	NaN	NaN	NaN	295.9108	1741.71729	65.37273	NaN	NaN	NaN	NaN	NaN	NaN	NaN	NaN	NaN	NaN	NaN	NaN	NaN	NaN	NaN
